<?xml version="1.0" standalone="no"?>
<!DOCTYPE svg PUBLIC "-//W3C//DTD SVG 20010904//EN"
 "http://www.w3.org/TR/2001/REC-SVG-20010904/DTD/svg10.dtd">
<svg version="1.0" xmlns="http://www.w3.org/2000/svg"
 width="844.000000pt" height="844.000000pt" viewBox="0 0 844.000000 844.000000"
 preserveAspectRatio="xMidYMid meet">
<metadata>
Created by potrace 1.11, written by Peter Selinger 2001-2013
</metadata>
<g transform="translate(0.000000,844.000000) scale(0.100000,-0.100000)"
fill="#000000" stroke="none">
<path d="M3995 7493 c-770 -67 -1447 -277 -1968 -610 -53 -34 -72 -41 -86 -34
-35 19 -287 102 -383 127 -410 103 -703 93 -1024 -35 -153 -62 -240 -117 -340
-216 -75 -74 -98 -105 -131 -175 -53 -108 -67 -175 -61 -286 10 -201 127 -359
498 -670 158 -134 311 -285 388 -386 l44 -57 -11 -73 c-21 -141 -41 -405 -47
-613 -7 -233 1 -308 57 -529 34 -137 138 -454 193 -594 l37 -92 -40 -118 c-45
-129 -103 -362 -122 -487 -17 -115 -15 -277 6 -355 29 -113 144 -306 273 -457
388 -454 951 -725 1752 -842 326 -48 467 -55 1030 -56 445 0 565 3 710 18 182
19 495 63 509 72 5 2 30 7 57 10 71 8 341 72 474 111 726 217 1252 566 1571
1043 93 138 126 206 139 284 23 149 -40 463 -156 773 l-35 92 51 189 c66 249
125 511 156 691 33 192 42 520 24 826 l-12 215 82 95 c87 100 154 163 365 341
354 299 456 456 443 685 -19 325 -317 586 -789 692 -135 30 -389 32 -544 4
-157 -28 -349 -80 -502 -136 l-140 -50 -84 46 c-509 284 -1153 487 -1744 549
-126 13 -522 18 -640 8z m695 -238 c460 -61 945 -208 1393 -423 122 -58 138
-68 132 -86 -15 -52 -27 -319 -21 -491 13 -446 83 -616 359 -881 175 -169 569
-464 637 -477 42 -9 80 7 116 50 l32 36 7 -89 c13 -153 -3 -489 -31 -654 -27
-164 -88 -428 -165 -717 l-51 -192 50 -138 c101 -276 152 -490 152 -631 0 -73
-2 -81 -46 -158 -99 -176 -270 -373 -448 -517 -419 -337 -1004 -565 -1721
-671 -355 -52 -493 -61 -1015 -61 -498 0 -621 6 -934 46 -894 113 -1500 436
-1837 980 -28 45 -57 100 -65 123 -18 49 -20 245 -4 356 20 139 74 340 136
502 l33 87 -40 98 c-116 284 -235 692 -260 891 -12 98 -6 318 18 595 l6 68 26
-25 c36 -35 80 -42 125 -21 102 48 453 315 604 459 282 269 350 433 368 881 7
193 -8 463 -30 505 l-14 30 99 56 c424 240 1027 420 1589 473 63 6 131 13 150
15 86 10 532 -3 650 -19z"/>
<path d="M2893 4361 c-28 -9 -77 -36 -107 -60 -89 -66 -141 -138 -306 -421
-40 -69 -89 -141 -110 -160 -20 -19 -92 -66 -159 -105 -144 -81 -201 -128
-230 -188 -63 -130 22 -371 189 -537 323 -322 817 -318 1097 9 180 210 280
367 324 511 35 110 32 280 -5 403 -31 105 -81 212 -136 294 -50 75 -159 179
-226 215 -106 57 -235 73 -331 39z m282 -566 c69 -68 -31 -170 -102 -103 -30
28 -30 74 -1 105 29 31 72 30 103 -2z"/>
<path d="M5307 4346 c-94 -34 -154 -75 -234 -160 -110 -117 -189 -272 -224
-439 -57 -280 18 -481 314 -836 145 -174 309 -257 527 -268 117 -6 189 7 314
55 254 99 466 356 483 586 5 60 2 80 -17 124 -30 69 -79 111 -231 197 -68 39
-142 88 -164 110 -22 22 -76 101 -119 175 -172 295 -249 391 -361 445 -83 41
-193 45 -288 11z m246 -537 c24 -11 47 -47 47 -73 0 -7 -9 -25 -21 -40 -16
-20 -29 -26 -58 -26 -42 0 -65 19 -76 62 -6 22 -1 33 23 58 33 33 48 36 85 19z"/>
<path d="M3975 2544 c-216 -22 -295 -68 -295 -172 0 -120 152 -263 347 -327
49 -15 53 -18 47 -43 -35 -156 -64 -224 -114 -266 -17 -14 -36 -26 -41 -26
-29 0 -94 48 -161 119 -82 88 -106 98 -146 61 -36 -34 -28 -71 27 -138 161
-193 328 -227 444 -91 20 23 44 61 54 85 10 24 20 44 23 44 3 0 16 -25 29 -55
29 -69 103 -139 162 -155 92 -25 210 23 323 130 58 55 69 72 69 99 0 36 -16
57 -54 66 -22 5 -37 -3 -90 -50 -78 -69 -155 -115 -192 -115 -62 0 -125 113
-151 271 -6 36 -6 36 36 43 57 9 162 52 228 94 76 47 127 98 156 154 62 123
-1 216 -173 254 -67 14 -440 27 -528 18z"/>
</g>
</svg>
